# xmcd CD database file
#
# Track frame offsets:
#	150
#	15165
#	30641
#	49445
#	67475
#	83763
#	99454
#	114563
#	124852
#	138878
#	152051
#	170365
#	194838
#	208016
#	221921
#	234956
#	249255
#	261806
#
# Disc length: 3666 seconds
#
# Revision: 1
# Processed by: cddbd v1.5.2PL0 Copyright (c) Steve Scherf et al.
# Submitted via: CDex 1.50Beta7
#
DISCID=020e5012
DTITLE=JOAQUIM and MANOEL - Joaquim and Manoel  AS 18 MAIS
DYEAR=1900
DGENRE=Sertanejo
TTITLE0=BOATE AZUL
TTITLE1=SOBRA SAUDADE
TTITLE2=UMA LAGRIMA
TTITLE3=MEU FILHO
TTITLE4=CORACAO CAIPIRA
TTITLE5=EU AMO DEMAIS A VIDA
TTITLE6=LIGUEI PRA VOCE
TTITLE7=DIAS PARES DIAS IMPARES
TTITLE8=CASA NOTURNA
TTITLE9=PELOS CAMINHOS DA VIDA
TTITLE10=TEMA PARA UM GRANDE AMOR
TTITLE11=MINHA MUSICA
TTITLE12=JOGO DE CINTURA
TTITLE13=O HOMEM APAIXONADO
TTITLE14=RESTO DE MULHER
TTITLE15=DAMA DO DIA
TTITLE16=POBRE MENNA RICA
TTITLE17=CASAMENTO ANULADO
EXTD=
EXTT0=
EXTT1=
EXTT2=
EXTT3=
EXTT4=
EXTT5=
EXTT6=
EXTT7=
EXTT8=
EXTT9=
EXTT10=
EXTT11=
EXTT12=
EXTT13=
EXTT14=
EXTT15=
EXTT16=
EXTT17=
PLAYORDER=
